<svg width="59" height="31" viewBox="0 0 59 31" fill="white" stroke='white' xmlns="http://www.w3.org/2000/svg">
<path d="M2.66 9.928C2.228 9.928 1.82 9.828 1.436 9.628C1.052 9.428 0.74 9.148 0.5 8.788C0.26 8.42 0.14 7.984 0.14 7.48C0.14 7.056 0.244 6.604 0.452 6.124C0.668 5.636 0.944 5.144 1.28 4.648C1.624 4.144 1.996 3.668 2.396 3.22C2.796 2.764 3.188 2.36 3.572 2.008C3.956 1.648 4.296 1.364 4.592 1.156C4.888 0.948 5.096 0.844 5.216 0.844C5.368 0.844 5.5 0.888 5.612 0.976C5.732 1.056 5.796 1.18 5.804 1.348C5.804 1.428 5.776 1.52 5.72 1.624C5.664 1.72 5.556 1.82 5.396 1.924C5.22 2.036 4.996 2.204 4.724 2.428C4.452 2.652 4.16 2.92 3.848 3.232C3.536 3.536 3.228 3.868 2.924 4.228C2.62 4.58 2.34 4.944 2.084 5.32C1.828 5.688 1.624 6.048 1.472 6.4C1.32 6.752 1.244 7.08 1.244 7.384C1.244 7.856 1.376 8.216 1.64 8.464C1.904 8.712 2.268 8.836 2.732 8.836C2.972 8.836 3.256 8.768 3.584 8.632C3.912 8.496 4.248 8.316 4.592 8.092C4.944 7.868 5.28 7.624 5.6 7.36C5.92 7.088 6.192 6.82 6.416 6.556C6.648 6.292 6.8 6.052 6.872 5.836C6.672 5.884 6.42 5.936 6.116 5.992C5.812 6.048 5.496 6.1 5.168 6.148C4.848 6.196 4.556 6.236 4.292 6.268C4.028 6.3 3.836 6.316 3.716 6.316C3.468 6.316 3.272 6.252 3.128 6.124C2.992 5.996 2.924 5.868 2.924 5.74C2.924 5.652 2.96 5.568 3.032 5.488C3.104 5.408 3.216 5.356 3.368 5.332C3.544 5.308 3.776 5.272 4.064 5.224C4.36 5.168 4.668 5.116 4.988 5.068C5.316 5.012 5.616 4.964 5.888 4.924C6.168 4.884 6.38 4.864 6.524 4.864C6.94 4.864 7.248 4.988 7.448 5.236C7.648 5.476 7.748 5.82 7.748 6.268C7.748 6.484 7.64 6.748 7.424 7.06C7.208 7.372 6.916 7.696 6.548 8.032C6.188 8.36 5.784 8.668 5.336 8.956C4.896 9.244 4.444 9.48 3.98 9.664C3.516 9.84 3.076 9.928 2.66 9.928ZM10.0834 10.228C9.95541 10.228 9.84741 10.176 9.75941 10.072C9.67141 9.968 9.62741 9.824 9.62741 9.64C9.62741 9.504 9.65541 9.28 9.71141 8.968C9.77541 8.648 9.84341 8.276 9.91541 7.852C9.99541 7.428 10.0634 6.988 10.1194 6.532C10.1754 6.068 10.2034 5.624 10.2034 5.2C10.2034 4.992 10.2554 4.84 10.3594 4.744C10.4714 4.64 10.5954 4.588 10.7314 4.588C10.8594 4.588 10.9554 4.668 11.0194 4.828C11.0834 4.988 11.0954 5.308 11.0554 5.788C11.4234 4.972 11.8274 4.316 12.2674 3.82C12.7154 3.316 13.1594 2.956 13.5994 2.74C14.0394 2.516 14.4354 2.404 14.7874 2.404C15.0194 2.404 15.1874 2.452 15.2914 2.548C15.4034 2.636 15.4594 2.736 15.4594 2.848C15.4594 3 15.3954 3.12 15.2674 3.208C15.1474 3.288 14.9354 3.384 14.6314 3.496C14.2794 3.632 13.9554 3.792 13.6594 3.976C13.3714 4.152 13.0954 4.384 12.8314 4.672C12.5754 4.96 12.3234 5.328 12.0754 5.776C11.8274 6.216 11.5794 6.76 11.3314 7.408C11.0834 8.056 10.8194 8.836 10.5394 9.748C10.4914 9.924 10.4274 10.048 10.3474 10.12C10.2754 10.192 10.1874 10.228 10.0834 10.228ZM16.079 9.772C15.775 9.772 15.523 9.632 15.323 9.352C15.131 9.064 15.035 8.692 15.035 8.236C15.035 7.836 15.135 7.452 15.335 7.084C15.535 6.708 15.799 6.348 16.127 6.004C16.463 5.66 16.835 5.344 17.243 5.056C17.651 4.76 18.063 4.492 18.479 4.252C18.903 4.012 19.303 3.808 19.679 3.64C20.063 3.472 20.391 3.344 20.663 3.256C20.935 3.16 21.123 3.112 21.227 3.112C21.403 3.112 21.491 3.208 21.491 3.4C21.491 3.568 21.423 3.716 21.287 3.844C21.159 3.972 21.003 4.08 20.819 4.168C20.483 4.336 20.099 4.536 19.667 4.768C19.243 4.992 18.811 5.244 18.371 5.524C17.939 5.796 17.535 6.088 17.159 6.4C16.791 6.712 16.495 7.04 16.271 7.384C16.047 7.72 15.935 8.064 15.935 8.416C15.935 8.52 15.955 8.6 15.995 8.656C16.043 8.712 16.123 8.74 16.235 8.74C16.379 8.74 16.563 8.672 16.787 8.536C17.019 8.392 17.271 8.204 17.543 7.972C17.823 7.732 18.099 7.468 18.371 7.18C18.651 6.892 18.911 6.6 19.151 6.304C19.391 6 19.587 5.716 19.739 5.452C19.827 5.308 19.927 5.188 20.039 5.092C20.151 4.988 20.271 4.936 20.399 4.936C20.575 4.936 20.663 5.04 20.663 5.248C20.663 5.312 20.639 5.476 20.591 5.74C20.551 6.004 20.507 6.324 20.459 6.7C20.411 7.068 20.387 7.456 20.387 7.864C20.387 8.736 20.595 9.172 21.011 9.172C21.243 9.172 21.483 9.084 21.731 8.908C21.987 8.732 22.235 8.508 22.475 8.236C22.723 7.956 22.951 7.66 23.159 7.348C23.367 7.036 23.543 6.74 23.687 6.46C23.831 6.18 23.931 5.956 23.987 5.788C24.115 4.892 24.295 4.248 24.527 3.856C24.767 3.464 25.011 3.268 25.259 3.268C25.419 3.268 25.547 3.312 25.643 3.4C25.739 3.48 25.787 3.66 25.787 3.94C25.787 4.132 25.711 4.42 25.559 4.804C25.407 5.188 25.203 5.608 24.947 6.064C24.875 6.472 24.835 6.892 24.827 7.324C24.819 7.756 24.863 8.152 24.959 8.512C25.167 8.408 25.375 8.22 25.583 7.948C25.791 7.668 26.003 7.344 26.219 6.976C26.435 6.608 26.647 6.228 26.855 5.836C27.071 5.444 27.283 5.084 27.491 4.756C27.707 4.42 27.915 4.148 28.115 3.94C28.323 3.732 28.527 3.628 28.727 3.628C28.983 3.628 29.195 3.708 29.363 3.868C29.531 4.02 29.659 4.292 29.747 4.684C29.835 5.068 29.879 5.612 29.879 6.316C29.879 6.692 29.915 7.044 29.987 7.372C30.067 7.7 30.191 7.964 30.359 8.164C30.535 8.356 30.759 8.452 31.031 8.452C31.439 8.452 31.803 8.38 32.123 8.236C32.443 8.084 32.719 7.916 32.951 7.732C33.191 7.54 33.391 7.372 33.551 7.228C33.711 7.076 33.835 7 33.923 7C34.107 7 34.199 7.096 34.199 7.288C34.199 7.368 34.139 7.496 34.019 7.672C33.907 7.84 33.747 8.032 33.539 8.248C33.339 8.456 33.107 8.66 32.843 8.86C32.587 9.052 32.311 9.212 32.015 9.34C31.727 9.468 31.435 9.532 31.139 9.532C30.587 9.532 30.135 9.424 29.783 9.208C29.439 8.992 29.183 8.636 29.015 8.14C28.855 7.644 28.775 6.98 28.775 6.148C28.775 5.692 28.759 5.36 28.727 5.152C28.695 4.936 28.615 4.792 28.487 4.72C28.391 4.888 28.263 5.128 28.103 5.44C27.951 5.744 27.775 6.084 27.575 6.46C27.383 6.836 27.175 7.216 26.951 7.6C26.727 7.976 26.499 8.324 26.267 8.644C26.035 8.956 25.803 9.212 25.571 9.412C25.339 9.604 25.119 9.7 24.911 9.7C24.775 9.7 24.635 9.628 24.491 9.484C24.347 9.332 24.227 9.136 24.131 8.896C24.035 8.648 23.987 8.384 23.987 8.104C23.987 7.92 23.991 7.748 23.999 7.588C23.671 8.052 23.327 8.484 22.967 8.884C22.607 9.276 22.247 9.592 21.887 9.832C21.527 10.072 21.191 10.192 20.879 10.192C20.631 10.192 20.399 10.104 20.183 9.928C19.967 9.744 19.791 9.436 19.655 9.004C19.527 8.564 19.455 7.968 19.439 7.216C19.087 7.712 18.715 8.152 18.323 8.536C17.931 8.92 17.543 9.224 17.159 9.448C16.775 9.664 16.415 9.772 16.079 9.772ZM34.1747 9.724C33.9427 9.724 33.7347 9.592 33.5507 9.328C33.3667 9.064 33.2747 8.724 33.2747 8.308C33.2747 7.852 33.3347 7.364 33.4547 6.844C33.5827 6.324 33.7387 5.796 33.9227 5.26C34.1067 4.716 34.2867 4.192 34.4627 3.688C34.5027 3.584 34.5587 3.508 34.6307 3.46C34.7107 3.404 34.8307 3.376 34.9907 3.376C35.2787 3.376 35.4227 3.516 35.4227 3.796C35.4227 3.86 35.3907 4.004 35.3267 4.228C35.2627 4.452 35.1787 4.728 35.0747 5.056C34.9787 5.384 34.8787 5.74 34.7747 6.124C34.6707 6.5 34.5787 6.88 34.4987 7.264C34.4187 7.648 34.3627 8.004 34.3307 8.332C34.4587 8.196 34.6027 7.988 34.7627 7.708C34.9307 7.428 35.1107 7.112 35.3027 6.76C35.4947 6.4 35.6947 6.04 35.9027 5.68C36.1107 5.312 36.3187 4.976 36.5267 4.672C36.7427 4.36 36.9507 4.112 37.1507 3.928C37.3587 3.736 37.5507 3.64 37.7267 3.64C37.9827 3.64 38.1987 3.72 38.3747 3.88C38.5587 4.032 38.6987 4.304 38.7947 4.696C38.8987 5.08 38.9507 5.624 38.9507 6.328C38.9507 6.704 38.9867 7.056 39.0587 7.384C39.1387 7.712 39.2627 7.976 39.4307 8.176C39.6067 8.368 39.8307 8.464 40.1027 8.464C40.5107 8.464 40.8747 8.392 41.1947 8.248C41.5147 8.096 41.7907 7.928 42.0227 7.744C42.2627 7.552 42.4627 7.384 42.6227 7.24C42.7827 7.088 42.9067 7.012 42.9947 7.012C43.1787 7.012 43.2707 7.108 43.2707 7.3C43.2707 7.38 43.2107 7.508 43.0907 7.684C42.9787 7.852 42.8187 8.044 42.6107 8.26C42.4107 8.468 42.1787 8.672 41.9147 8.872C41.6587 9.064 41.3827 9.224 41.0867 9.352C40.7987 9.48 40.5067 9.544 40.2107 9.544C39.6587 9.544 39.2067 9.436 38.8547 9.22C38.5107 9.004 38.2547 8.648 38.0867 8.152C37.9267 7.656 37.8467 6.992 37.8467 6.16C37.8467 5.704 37.8187 5.372 37.7627 5.164C37.7147 4.948 37.6227 4.804 37.4867 4.732C37.3907 4.9 37.2667 5.14 37.1147 5.452C36.9627 5.756 36.7867 6.096 36.5867 6.472C36.3947 6.848 36.1907 7.228 35.9747 7.612C35.7667 7.988 35.5547 8.336 35.3387 8.656C35.1227 8.976 34.9147 9.236 34.7147 9.436C34.5147 9.628 34.3347 9.724 34.1747 9.724ZM44.085 13.084C43.685 13.084 43.317 13.056 42.981 13C42.653 12.952 42.329 12.872 42.009 12.76C41.689 12.656 41.341 12.52 40.965 12.352C40.853 12.296 40.753 12.228 40.665 12.148C40.577 12.076 40.533 11.992 40.533 11.896C40.533 11.776 40.609 11.648 40.761 11.512C40.905 11.384 41.041 11.32 41.169 11.32C41.305 11.32 41.473 11.368 41.673 11.464C41.881 11.56 42.121 11.672 42.393 11.8C42.665 11.936 42.965 12.052 43.293 12.148C43.629 12.244 43.989 12.292 44.373 12.292C44.789 12.292 45.181 12.12 45.549 11.776C45.917 11.432 46.217 10.936 46.449 10.288C46.681 9.648 46.797 8.876 46.797 7.972C46.797 7.7 46.789 7.4 46.773 7.072C46.765 6.736 46.749 6.384 46.725 6.016C46.533 6.432 46.317 6.844 46.077 7.252C45.845 7.66 45.601 8.028 45.345 8.356C45.097 8.684 44.837 8.948 44.565 9.148C44.301 9.34 44.033 9.436 43.761 9.436C43.417 9.436 43.169 9.348 43.017 9.172C42.865 8.996 42.789 8.724 42.789 8.356C42.789 7.972 42.817 7.556 42.873 7.108C42.929 6.66 43.001 6.208 43.089 5.752C43.185 5.288 43.297 4.848 43.425 4.432C43.553 4.016 43.689 3.656 43.833 3.352C43.913 3.192 44.033 3.112 44.193 3.112C44.305 3.112 44.413 3.172 44.517 3.292C44.629 3.404 44.685 3.552 44.685 3.736C44.685 3.88 44.653 4.084 44.589 4.348C44.525 4.612 44.445 4.912 44.349 5.248C44.253 5.584 44.157 5.936 44.061 6.304C43.965 6.664 43.885 7.02 43.821 7.372C43.757 7.716 43.725 8.032 43.725 8.32C43.725 8.44 43.805 8.5 43.965 8.5C44.053 8.5 44.177 8.42 44.337 8.26C44.505 8.092 44.689 7.876 44.889 7.612C45.097 7.34 45.305 7.044 45.513 6.724C45.729 6.396 45.937 6.072 46.137 5.752C46.337 5.424 46.509 5.124 46.653 4.852C46.645 4.788 46.641 4.728 46.641 4.672C46.641 4.616 46.641 4.564 46.641 4.516C46.641 4.124 46.681 3.88 46.761 3.784C46.849 3.68 46.961 3.628 47.097 3.628C47.329 3.628 47.493 3.68 47.589 3.784C47.685 3.888 47.733 4.068 47.733 4.324C47.733 4.42 47.721 4.524 47.697 4.636C47.673 4.74 47.633 4.892 47.577 5.092C47.641 5.724 47.693 6.292 47.733 6.796C47.781 7.3 47.805 7.808 47.805 8.32C47.805 9.288 47.649 10.128 47.337 10.84C47.033 11.552 46.601 12.104 46.041 12.496C45.489 12.888 44.837 13.084 44.085 13.084ZM52.5339 10.36C52.2699 10.36 52.0539 10.32 51.8859 10.24C51.7179 10.16 51.5939 10.068 51.5139 9.964C51.4419 9.86 51.4059 9.776 51.4059 9.712C51.4059 9.52 51.4539 9.388 51.5499 9.316C51.6459 9.244 51.8459 9.208 52.1499 9.208C52.3259 9.208 52.5699 9.176 52.8819 9.112C53.2019 9.04 53.5539 8.94 53.9379 8.812C54.3219 8.676 54.7139 8.512 55.1139 8.32C55.5139 8.128 55.8859 7.908 56.2299 7.66C56.5739 7.412 56.8619 7.14 57.0939 6.844C57.3339 6.54 57.4859 6.216 57.5499 5.872C57.3179 5.824 57.0819 5.792 56.8419 5.776C56.6099 5.752 56.3779 5.74 56.1459 5.74C55.4419 5.74 54.7259 5.816 53.9979 5.968C53.2699 6.112 52.5339 6.276 51.7899 6.46C51.7659 6.684 51.7459 6.888 51.7299 7.072C51.7139 7.256 51.7019 7.452 51.6939 7.66C51.6699 8.172 51.6099 8.512 51.5139 8.68C51.4259 8.84 51.3259 8.92 51.2139 8.92C51.0379 8.92 50.9019 8.816 50.8059 8.608C50.7099 8.4 50.6619 8.068 50.6619 7.612C50.6619 6.156 50.8059 4.9 51.0939 3.844C51.3819 2.788 51.8099 1.976 52.3779 1.408C52.9459 0.839999 53.6419 0.555999 54.4659 0.555999C55.0499 0.555999 55.5019 0.711999 55.8219 1.024C56.1499 1.336 56.3139 1.788 56.3139 2.38C56.3139 2.788 56.2419 3.212 56.0979 3.652C55.9539 4.084 55.7419 4.48 55.4619 4.84C55.6779 4.8 55.8899 4.772 56.0979 4.756C56.3059 4.732 56.4979 4.72 56.6739 4.72C57.2819 4.72 57.7539 4.82 58.0899 5.02C58.4259 5.22 58.5939 5.516 58.5939 5.908C58.5939 6.364 58.4659 6.792 58.2099 7.192C57.9619 7.592 57.6299 7.956 57.2139 8.284C56.8059 8.612 56.3619 8.908 55.8819 9.172C55.4019 9.428 54.9339 9.644 54.4779 9.82C54.0219 9.996 53.6179 10.128 53.2659 10.216C52.9219 10.312 52.6779 10.36 52.5339 10.36ZM51.8979 5.428C52.7859 5.268 53.4739 5.056 53.9619 4.792C54.4499 4.528 54.7899 4.22 54.9819 3.868C55.1739 3.508 55.2699 3.104 55.2699 2.656C55.2699 2.512 55.2459 2.364 55.1979 2.212C55.1499 2.052 55.0579 1.916 54.9219 1.804C54.7859 1.692 54.5899 1.636 54.3339 1.636C53.6779 1.636 53.1499 1.936 52.7499 2.536C52.3579 3.136 52.0739 4.1 51.8979 5.428ZM1.22 26.868C1.108 26.868 1.004 26.836 0.908 26.772C0.82 26.708 0.752 26.58 0.704 26.388C0.656 26.188 0.632 25.896 0.632 25.512C0.632 24.712 0.708 23.92 0.86 23.136C1.012 22.352 1.228 21.616 1.508 20.928C1.788 20.232 2.12 19.62 2.504 19.092C2.896 18.556 3.328 18.136 3.8 17.832C4.28 17.528 4.788 17.376 5.324 17.376C5.908 17.376 6.368 17.556 6.704 17.916C7.04 18.268 7.208 18.772 7.208 19.428C7.208 20.036 7.036 20.54 6.692 20.94C6.356 21.34 5.888 21.54 5.288 21.54C5.184 21.54 5.072 21.532 4.952 21.516C4.832 21.492 4.708 21.46 4.58 21.42C5.068 22.236 5.556 22.944 6.044 23.544C6.532 24.144 7.028 24.684 7.532 25.164C8.044 25.636 8.564 26.092 9.092 26.532C9.172 26.604 9.232 26.676 9.272 26.748C9.312 26.812 9.332 26.888 9.332 26.976C9.332 27.112 9.3 27.212 9.236 27.276C9.18 27.34 9.06 27.372 8.876 27.372C8.676 27.372 8.428 27.284 8.132 27.108C7.844 26.932 7.528 26.692 7.184 26.388C6.84 26.084 6.492 25.74 6.14 25.356C5.788 24.972 5.448 24.572 5.12 24.156C4.8 23.732 4.512 23.32 4.256 22.92C4 22.512 3.796 22.136 3.644 21.792C3.5 21.448 3.428 21.156 3.428 20.916C3.428 20.756 3.468 20.632 3.548 20.544C3.628 20.448 3.736 20.4 3.872 20.4C4.048 20.4 4.208 20.424 4.352 20.472C4.504 20.52 4.664 20.544 4.832 20.544C5.272 20.544 5.62 20.432 5.876 20.208C6.14 19.976 6.272 19.596 6.272 19.068C6.272 18.604 5.96 18.372 5.336 18.372C4.904 18.372 4.488 18.544 4.088 18.888C3.688 19.224 3.32 19.708 2.984 20.34C2.656 20.972 2.384 21.732 2.168 22.62C1.952 23.5 1.812 24.484 1.748 25.572C1.732 25.948 1.696 26.228 1.64 26.412C1.592 26.596 1.532 26.72 1.46 26.784C1.396 26.84 1.316 26.868 1.22 26.868ZM15.7101 21.828C15.7101 22.084 15.6301 22.336 15.4701 22.584C15.3101 22.824 15.0981 23.056 14.8341 23.28C14.5701 23.496 14.2781 23.7 13.9581 23.892C13.6381 24.084 13.3181 24.252 12.9981 24.396C12.6781 24.54 12.3861 24.656 12.1221 24.744C12.0581 25.056 12.0261 25.332 12.0261 25.572C12.0261 25.724 12.0621 25.832 12.1341 25.896C12.2061 25.96 12.3181 25.992 12.4701 25.992C12.8061 25.992 13.1621 25.932 13.5381 25.812C13.9141 25.692 14.2981 25.536 14.6901 25.344C15.0821 25.152 15.4581 24.948 15.8181 24.732C16.1781 24.516 16.5061 24.312 16.8021 24.12C17.1061 23.928 17.3581 23.772 17.5581 23.652C17.7581 23.532 17.8901 23.472 17.9541 23.472C18.0501 23.472 18.1221 23.504 18.1701 23.568C18.2261 23.624 18.2541 23.692 18.2541 23.772C18.2541 23.836 18.1541 23.96 17.9541 24.144C17.7621 24.328 17.5021 24.544 17.1741 24.792C16.8461 25.032 16.4781 25.28 16.0701 25.536C15.6621 25.792 15.2381 26.032 14.7981 26.256C14.3661 26.48 13.9461 26.66 13.5381 26.796C13.1381 26.932 12.7781 27 12.4581 27C12.0421 27 11.7181 26.844 11.4861 26.532C11.2541 26.22 11.1381 25.736 11.1381 25.08C11.1381 24.64 11.1941 24.196 11.3061 23.748C11.4261 23.3 11.5861 22.872 11.7861 22.464C11.9941 22.048 12.2221 21.68 12.4701 21.36C12.7261 21.032 12.9941 20.776 13.2741 20.592C13.5541 20.4 13.8261 20.304 14.0901 20.304C14.5941 20.304 14.9901 20.444 15.2781 20.724C15.5661 21.004 15.7101 21.372 15.7101 21.828ZM12.3741 23.82C12.6221 23.668 12.8781 23.508 13.1421 23.34C13.4061 23.172 13.6501 23 13.8741 22.824C14.0981 22.648 14.2781 22.464 14.4141 22.272C14.5581 22.072 14.6301 21.868 14.6301 21.66C14.6301 21.364 14.4701 21.216 14.1501 21.216C13.9501 21.216 13.7381 21.344 13.5141 21.6C13.2981 21.848 13.0901 22.172 12.8901 22.572C12.6901 22.972 12.5181 23.388 12.3741 23.82ZM19.1725 27.168C18.7805 27.168 18.4405 27.08 18.1525 26.904C17.8725 26.72 17.6565 26.484 17.5045 26.196C17.3525 25.908 17.2765 25.612 17.2765 25.308C17.2765 24.668 17.3885 24.084 17.6125 23.556C17.8365 23.02 18.1165 22.548 18.4525 22.14C18.7965 21.724 19.1485 21.372 19.5085 21.084C19.8765 20.796 20.2085 20.58 20.5045 20.436C20.8085 20.284 21.0245 20.208 21.1525 20.208C21.4085 20.208 21.5365 20.336 21.5365 20.592C21.5365 20.712 21.4565 20.852 21.2965 21.012C21.1365 21.164 20.9325 21.344 20.6845 21.552C20.4365 21.76 20.1725 21.996 19.8925 22.26C19.6125 22.516 19.3485 22.808 19.1005 23.136C18.8525 23.456 18.6485 23.816 18.4885 24.216C18.3285 24.608 18.2485 25.04 18.2485 25.512C18.2485 25.992 18.4445 26.232 18.8365 26.232C19.1965 26.232 19.5645 26.164 19.9405 26.028C20.3245 25.892 20.7005 25.716 21.0685 25.5C21.4445 25.276 21.8045 25.044 22.1485 24.804C22.4925 24.564 22.8045 24.336 23.0845 24.12C23.3645 23.896 23.6005 23.716 23.7925 23.58C23.9845 23.444 24.1205 23.376 24.2005 23.376C24.3605 23.376 24.4405 23.464 24.4405 23.64C24.4405 23.776 24.3485 23.956 24.1645 24.18C23.9805 24.404 23.7325 24.648 23.4205 24.912C23.1085 25.176 22.7605 25.444 22.3765 25.716C21.9925 25.98 21.6045 26.224 21.2125 26.448C20.8205 26.664 20.4445 26.84 20.0845 26.976C19.7325 27.104 19.4285 27.168 19.1725 27.168ZM24.3638 27.06C24.2118 27.06 24.0758 27.004 23.9558 26.892C23.8358 26.772 23.7758 26.588 23.7758 26.34C23.7758 26.164 23.7998 25.92 23.8478 25.608C23.8958 25.288 23.9598 24.94 24.0398 24.564C24.1198 24.188 24.2038 23.816 24.2918 23.448C24.3878 23.072 24.4838 22.736 24.5798 22.44C24.6758 22.144 24.7598 21.924 24.8318 21.78C24.8958 21.668 24.9558 21.596 25.0118 21.564C25.0758 21.532 25.1358 21.516 25.1918 21.516C25.3038 21.516 25.3998 21.552 25.4798 21.624C25.5678 21.696 25.6118 21.836 25.6118 22.044C25.6118 22.164 25.5878 22.364 25.5398 22.644C25.4998 22.916 25.4438 23.236 25.3718 23.604C25.3078 23.964 25.2358 24.336 25.1558 24.72C25.0838 25.096 25.0118 25.456 24.9398 25.8C24.8678 26.144 24.8118 26.432 24.7718 26.664C24.7398 26.792 24.6838 26.892 24.6038 26.964C24.5318 27.028 24.4518 27.06 24.3638 27.06ZM25.5398 20.424C25.3558 20.424 25.1798 20.368 25.0118 20.256C24.8518 20.144 24.7718 19.964 24.7718 19.716C24.7718 19.508 24.8198 19.34 24.9158 19.212C25.0198 19.084 25.1398 18.992 25.2758 18.936C25.4198 18.872 25.5438 18.84 25.6478 18.84C25.7518 18.84 25.8678 18.864 25.9958 18.912C26.1318 18.952 26.2478 19.032 26.3438 19.152C26.4398 19.264 26.4878 19.432 26.4878 19.656C26.4878 19.808 26.4358 19.944 26.3318 20.064C26.2278 20.176 26.0998 20.264 25.9478 20.328C25.8038 20.392 25.6678 20.424 25.5398 20.424ZM27.3478 30.564C27.2118 30.564 27.1038 30.516 27.0238 30.42C26.9518 30.324 26.9158 30.14 26.9158 29.868C26.9158 29.476 26.9438 29.02 26.9998 28.5C27.0558 27.98 27.1318 27.428 27.2278 26.844C27.3318 26.26 27.4438 25.676 27.5638 25.092C27.6918 24.508 27.8238 23.952 27.9598 23.424C28.1038 22.896 28.2438 22.428 28.3798 22.02C28.5158 21.604 28.6398 21.276 28.7518 21.036C28.8718 20.796 28.9758 20.676 29.0638 20.676C29.2158 20.676 29.3358 20.72 29.4238 20.808C29.5198 20.896 29.5678 21.028 29.5678 21.204C29.5678 21.428 29.4998 21.792 29.3638 22.296C29.2278 22.792 29.0518 23.44 28.8358 24.24C29.0358 23.872 29.2518 23.488 29.4838 23.088C29.7158 22.688 29.9598 22.3 30.2158 21.924C30.4718 21.54 30.7278 21.196 30.9838 20.892C31.2478 20.588 31.5038 20.344 31.7518 20.16C31.9998 19.976 32.2398 19.884 32.4718 19.884C32.7198 19.884 32.9398 19.964 33.1318 20.124C33.3238 20.276 33.4718 20.484 33.5758 20.748C33.6878 21.004 33.7438 21.292 33.7438 21.612C33.7438 22.276 33.6318 22.92 33.4078 23.544C33.1838 24.16 32.8718 24.716 32.4718 25.212C32.0798 25.7 31.6158 26.088 31.0798 26.376C30.5518 26.664 29.9798 26.808 29.3638 26.808C29.1318 26.808 28.9238 26.796 28.7398 26.772C28.5558 26.748 28.3958 26.72 28.2598 26.688C28.1638 27.216 28.0718 27.76 27.9838 28.32C27.8958 28.88 27.8078 29.476 27.7198 30.108C27.6958 30.276 27.6558 30.392 27.5998 30.456C27.5438 30.528 27.4598 30.564 27.3478 30.564ZM32.6878 20.796C32.5198 20.796 32.3198 20.892 32.0878 21.084C31.8638 21.276 31.6198 21.532 31.3558 21.852C31.0998 22.164 30.8398 22.512 30.5758 22.896C30.3118 23.272 30.0558 23.656 29.8078 24.048C29.5598 24.44 29.3318 24.804 29.1238 25.14C28.9238 25.476 28.7598 25.756 28.6318 25.98C29.2558 25.964 29.8038 25.84 30.2758 25.608C30.7478 25.368 31.1518 25.064 31.4878 24.696C31.8238 24.32 32.0958 23.916 32.3038 23.484C32.5198 23.044 32.6758 22.62 32.7718 22.212C32.8678 21.796 32.9158 21.436 32.9158 21.132C32.9158 20.908 32.8398 20.796 32.6878 20.796ZM39.757 21.828C39.757 22.084 39.677 22.336 39.517 22.584C39.357 22.824 39.145 23.056 38.881 23.28C38.617 23.496 38.325 23.7 38.005 23.892C37.685 24.084 37.365 24.252 37.045 24.396C36.725 24.54 36.433 24.656 36.169 24.744C36.105 25.056 36.073 25.332 36.073 25.572C36.073 25.724 36.109 25.832 36.181 25.896C36.253 25.96 36.365 25.992 36.517 25.992C36.853 25.992 37.209 25.932 37.585 25.812C37.961 25.692 38.345 25.536 38.737 25.344C39.129 25.152 39.505 24.948 39.865 24.732C40.225 24.516 40.553 24.312 40.849 24.12C41.153 23.928 41.405 23.772 41.605 23.652C41.805 23.532 41.937 23.472 42.001 23.472C42.097 23.472 42.169 23.504 42.217 23.568C42.273 23.624 42.301 23.692 42.301 23.772C42.301 23.836 42.201 23.96 42.001 24.144C41.809 24.328 41.549 24.544 41.221 24.792C40.893 25.032 40.525 25.28 40.117 25.536C39.709 25.792 39.285 26.032 38.845 26.256C38.413 26.48 37.993 26.66 37.585 26.796C37.185 26.932 36.825 27 36.505 27C36.089 27 35.765 26.844 35.533 26.532C35.301 26.22 35.185 25.736 35.185 25.08C35.185 24.64 35.241 24.196 35.353 23.748C35.473 23.3 35.633 22.872 35.833 22.464C36.041 22.048 36.269 21.68 36.517 21.36C36.773 21.032 37.041 20.776 37.321 20.592C37.601 20.4 37.873 20.304 38.137 20.304C38.641 20.304 39.037 20.444 39.325 20.724C39.613 21.004 39.757 21.372 39.757 21.828ZM36.421 23.82C36.669 23.668 36.925 23.508 37.189 23.34C37.453 23.172 37.697 23 37.921 22.824C38.145 22.648 38.325 22.464 38.461 22.272C38.605 22.072 38.677 21.868 38.677 21.66C38.677 21.364 38.517 21.216 38.197 21.216C37.997 21.216 37.785 21.344 37.561 21.6C37.345 21.848 37.137 22.172 36.937 22.572C36.737 22.972 36.565 23.388 36.421 23.82ZM43.1057 27.264C42.9297 27.264 42.7937 27.212 42.6977 27.108C42.6097 27.012 42.5657 26.9 42.5657 26.772C42.5657 26.66 42.6137 26.556 42.7097 26.46C42.8137 26.356 42.9537 26.264 43.1297 26.184C43.4497 26.016 43.7497 25.848 44.0297 25.68C44.3177 25.512 44.5497 25.332 44.7257 25.14C44.9017 24.948 44.9897 24.744 44.9897 24.528C44.9897 24.344 44.9297 24.204 44.8097 24.108C44.6897 24.004 44.5257 23.952 44.3177 23.952C44.1977 23.952 44.0297 23.976 43.8137 24.024C43.5977 24.064 43.3617 24.112 43.1057 24.168C42.8577 24.216 42.6137 24.264 42.3737 24.312C42.1337 24.352 41.9297 24.372 41.7617 24.372C41.4577 24.372 41.2297 24.3 41.0777 24.156C40.9257 24.004 40.8497 23.8 40.8497 23.544C40.8497 23.416 40.9257 23.224 41.0777 22.968C41.2297 22.712 41.4297 22.428 41.6777 22.116C41.9337 21.796 42.2137 21.476 42.5177 21.156C42.8217 20.836 43.1297 20.54 43.4417 20.268C43.7617 19.996 44.0577 19.776 44.3297 19.608C44.6097 19.44 44.8417 19.356 45.0257 19.356C45.2097 19.356 45.3497 19.416 45.4457 19.536C45.5417 19.656 45.5897 19.808 45.5897 19.992C45.5897 20.136 45.5657 20.26 45.5177 20.364C45.4697 20.46 45.3697 20.536 45.2177 20.592C45.0737 20.648 44.8497 20.68 44.5457 20.688C44.2337 20.936 43.9017 21.22 43.5497 21.54C43.2057 21.852 42.8897 22.176 42.6017 22.512C42.3217 22.84 42.1177 23.156 41.9897 23.46C42.2537 23.372 42.5737 23.296 42.9497 23.232C43.3337 23.16 43.7217 23.124 44.1137 23.124C44.7297 23.124 45.1857 23.264 45.4817 23.544C45.7857 23.816 45.9377 24.176 45.9377 24.624C45.9377 24.912 45.8457 25.212 45.6617 25.524C45.4857 25.828 45.2537 26.112 44.9657 26.376C44.6777 26.64 44.3697 26.852 44.0417 27.012C43.7137 27.18 43.4017 27.264 43.1057 27.264Z" fill="white"/>
</svg>
