<svg width="287" height="142" viewBox="0 0 287 142" fill="none" xmlns="http://www.w3.org/2000/svg">
<path d="M55.9167 122.25C56.6019 122.25 57.2589 121.978 57.7434 121.493C58.2279 121.009 58.5 120.352 58.5 119.666V105.846C58.5 104.665 59.3164 103.665 60.3781 103.156C62.5765 102.108 64.3337 100.316 65.3398 98.0979C66.3458 95.8797 66.5359 93.3774 65.8766 91.0326C65.2172 88.6879 63.7508 86.6514 61.7361 85.2826C59.7215 83.9138 57.288 83.3007 54.8653 83.5514C53.8675 81.2321 52.2119 79.2561 50.1031 77.8677C47.9943 76.4792 45.5249 75.7393 43 75.7393C40.4752 75.7393 38.0058 76.4792 35.897 77.8677C33.7882 79.2561 32.1326 81.2321 31.1348 83.5514C28.7131 83.3024 26.2813 83.9164 24.2681 85.2852C22.2549 86.6539 20.7896 88.6895 20.1305 91.033C19.4715 93.3765 19.6609 95.8775 20.6656 98.0949C21.6702 100.312 23.4255 102.104 25.622 103.154C26.6837 103.665 27.5 104.665 27.5 105.843V119.666C27.5 120.352 27.7722 121.009 28.2567 121.493C28.7412 121.978 29.3982 122.25 30.0834 122.25H55.9167Z" stroke="white" stroke-width="4" stroke-linecap="round" stroke-linejoin="round"/>
<path d="M27.5 111.917H58.5" stroke="white" stroke-width="4" stroke-linecap="round" stroke-linejoin="round"/>
<path d="M32.5205 59.48C29.8965 59.48 27.4805 59.064 25.2725 58.232C23.0965 57.368 21.1925 56.168 19.5605 54.632C17.9285 53.064 16.6645 51.224 15.7685 49.112C14.8725 47 14.4245 44.696 14.4245 42.2C14.4245 39.704 14.8725 37.4 15.7685 35.288C16.6645 33.176 17.9285 31.352 19.5605 29.816C21.2245 28.248 23.1605 27.048 25.3685 26.216C27.5765 25.352 29.9925 24.92 32.6165 24.92C35.4645 24.92 38.0245 25.384 40.2965 26.312C42.6005 27.24 44.5365 28.6 46.1045 30.392L42.1685 34.232C40.8565 32.92 39.4325 31.96 37.8965 31.352C36.3925 30.712 34.7285 30.392 32.9045 30.392C31.1445 30.392 29.5125 30.68 28.0085 31.256C26.5045 31.832 25.2085 32.648 24.1205 33.704C23.0325 34.76 22.1845 36.008 21.5765 37.448C21.0005 38.888 20.7125 40.472 20.7125 42.2C20.7125 43.896 21.0005 45.464 21.5765 46.904C22.1845 48.344 23.0325 49.608 24.1205 50.696C25.2085 51.752 26.4885 52.568 27.9605 53.144C29.4325 53.72 31.0645 54.008 32.8565 54.008C34.5205 54.008 36.1205 53.752 37.6565 53.24C39.2245 52.696 40.7125 51.8 42.1205 50.552L45.6725 55.208C43.9125 56.616 41.8645 57.688 39.5285 58.424C37.2245 59.128 34.8885 59.48 32.5205 59.48ZM39.7685 54.392V41.816H45.6725V55.208L39.7685 54.392ZM53.3266 59V33.368H59.0386V40.424L58.3666 38.36C59.1346 36.632 60.3346 35.32 61.9666 34.424C63.6306 33.528 65.6946 33.08 68.1586 33.08V38.792C67.9026 38.728 67.6626 38.696 67.4386 38.696C67.2146 38.664 66.9906 38.648 66.7666 38.648C64.4946 38.648 62.6866 39.32 61.3426 40.664C59.9986 41.976 59.3266 43.944 59.3266 46.568V59H53.3266ZM87.2124 59V53.816L86.8764 52.712V43.64C86.8764 41.88 86.3484 40.52 85.2924 39.56C84.2364 38.568 82.6364 38.072 80.4924 38.072C79.0524 38.072 77.6284 38.296 76.2204 38.744C74.8444 39.192 73.6764 39.816 72.7164 40.616L70.3644 36.248C71.7404 35.192 73.3724 34.408 75.2604 33.896C77.1804 33.352 79.1644 33.08 81.2124 33.08C84.9244 33.08 87.7884 33.976 89.8044 35.768C91.8524 37.528 92.8764 40.264 92.8764 43.976V59H87.2124ZM79.1484 59.336C77.2284 59.336 75.5484 59.016 74.1084 58.376C72.6684 57.704 71.5484 56.792 70.7484 55.64C69.9804 54.456 69.5964 53.128 69.5964 51.656C69.5964 50.216 69.9324 48.92 70.6044 47.768C71.3084 46.616 72.4444 45.704 74.0124 45.032C75.5804 44.36 77.6604 44.024 80.2524 44.024H87.6924V48.008H80.6844C78.6364 48.008 77.2604 48.344 76.5564 49.016C75.8524 49.656 75.5004 50.456 75.5004 51.416C75.5004 52.504 75.9324 53.368 76.7964 54.008C77.6604 54.648 78.8604 54.968 80.3964 54.968C81.8684 54.968 83.1804 54.632 84.3324 53.96C85.5164 53.288 86.3644 52.296 86.8764 50.984L87.8844 54.584C87.3084 56.088 86.2684 57.256 84.7644 58.088C83.2924 58.92 81.4204 59.336 79.1484 59.336ZM115.121 33.08C117.169 33.08 118.993 33.48 120.593 34.28C122.225 35.08 123.505 36.312 124.433 37.976C125.361 39.608 125.825 41.72 125.825 44.312V59H119.825V45.08C119.825 42.808 119.281 41.112 118.193 39.992C117.137 38.872 115.649 38.312 113.729 38.312C112.321 38.312 111.073 38.6 109.985 39.176C108.897 39.752 108.049 40.616 107.441 41.768C106.865 42.888 106.577 44.312 106.577 46.04V59H100.577V33.368H106.289V40.28L105.281 38.168C106.177 36.536 107.473 35.288 109.169 34.424C110.897 33.528 112.881 33.08 115.121 33.08ZM147.98 33.08C150.028 33.08 151.852 33.48 153.452 34.28C155.084 35.08 156.364 36.312 157.292 37.976C158.22 39.608 158.684 41.72 158.684 44.312V59H152.684V45.08C152.684 42.808 152.14 41.112 151.052 39.992C149.996 38.872 148.508 38.312 146.588 38.312C145.18 38.312 143.932 38.6 142.844 39.176C141.756 39.752 140.908 40.616 140.3 41.768C139.724 42.888 139.436 44.312 139.436 46.04V59H133.436V33.368H139.148V40.28L138.14 38.168C139.036 36.536 140.332 35.288 142.028 34.424C143.756 33.528 145.74 33.08 147.98 33.08ZM167.939 68.648C166.691 68.648 165.443 68.44 164.195 68.024C162.947 67.608 161.907 67.032 161.075 66.296L163.475 61.88C164.083 62.424 164.771 62.856 165.539 63.176C166.307 63.496 167.091 63.656 167.891 63.656C168.979 63.656 169.859 63.384 170.531 62.84C171.203 62.296 171.827 61.384 172.403 60.104L173.891 56.744L174.371 56.024L184.067 33.368H189.827L177.827 61.064C177.027 62.984 176.131 64.504 175.139 65.624C174.179 66.744 173.091 67.528 171.875 67.976C170.691 68.424 169.379 68.648 167.939 68.648ZM173.219 59.912L161.651 33.368H167.891L177.299 55.496L173.219 59.912ZM207.418 59V25.4H223.162C227.194 25.4 230.266 26.2 232.378 27.8C234.49 29.368 235.546 31.48 235.546 34.136C235.546 35.928 235.13 37.464 234.298 38.744C233.466 39.992 232.346 40.968 230.938 41.672C229.562 42.344 228.058 42.68 226.426 42.68L227.29 40.952C229.178 40.952 230.874 41.304 232.378 42.008C233.882 42.68 235.066 43.672 235.93 44.984C236.826 46.296 237.274 47.928 237.274 49.88C237.274 52.76 236.17 55 233.962 56.6C231.754 58.2 228.474 59 224.122 59H207.418ZM213.658 54.104H223.738C226.074 54.104 227.866 53.72 229.114 52.952C230.362 52.184 230.986 50.952 230.986 49.256C230.986 47.592 230.362 46.376 229.114 45.608C227.866 44.808 226.074 44.408 223.738 44.408H213.178V39.56H222.49C224.666 39.56 226.33 39.176 227.482 38.408C228.666 37.64 229.258 36.488 229.258 34.952C229.258 33.384 228.666 32.216 227.482 31.448C226.33 30.68 224.666 30.296 222.49 30.296H213.658V54.104ZM241.727 37.928L244.511 27.272L245.327 30.872C244.207 30.872 243.263 30.52 242.495 29.816C241.759 29.112 241.391 28.168 241.391 26.984C241.391 25.8 241.759 24.856 242.495 24.152C243.263 23.416 244.191 23.048 245.279 23.048C246.399 23.048 247.327 23.416 248.063 24.152C248.799 24.888 249.167 25.832 249.167 26.984C249.167 27.336 249.135 27.704 249.071 28.088C249.039 28.44 248.943 28.856 248.783 29.336C248.655 29.784 248.431 30.376 248.111 31.112L245.615 37.928H241.727ZM262.153 59.336C260.009 59.336 257.945 59.064 255.961 58.52C254.009 57.944 252.457 57.256 251.305 56.456L253.609 51.896C254.761 52.632 256.137 53.24 257.737 53.72C259.337 54.2 260.937 54.44 262.537 54.44C264.425 54.44 265.785 54.184 266.617 53.672C267.481 53.16 267.913 52.472 267.913 51.608C267.913 50.904 267.625 50.376 267.049 50.024C266.473 49.64 265.721 49.352 264.793 49.16C263.865 48.968 262.825 48.792 261.673 48.632C260.553 48.472 259.417 48.264 258.265 48.008C257.145 47.72 256.121 47.32 255.193 46.808C254.265 46.264 253.513 45.544 252.937 44.648C252.361 43.752 252.073 42.568 252.073 41.096C252.073 39.464 252.537 38.056 253.465 36.872C254.393 35.656 255.689 34.728 257.353 34.088C259.049 33.416 261.049 33.08 263.353 33.08C265.081 33.08 266.825 33.272 268.585 33.656C270.345 34.04 271.801 34.584 272.953 35.288L270.649 39.848C269.433 39.112 268.201 38.616 266.953 38.36C265.737 38.072 264.521 37.928 263.305 37.928C261.481 37.928 260.121 38.2 259.225 38.744C258.361 39.288 257.929 39.976 257.929 40.808C257.929 41.576 258.217 42.152 258.793 42.536C259.369 42.92 260.121 43.224 261.049 43.448C261.977 43.672 263.001 43.864 264.121 44.024C265.273 44.152 266.409 44.36 267.529 44.648C268.649 44.936 269.673 45.336 270.601 45.848C271.561 46.328 272.329 47.016 272.905 47.912C273.481 48.808 273.769 49.976 273.769 51.416C273.769 53.016 273.289 54.408 272.329 55.592C271.401 56.776 270.073 57.704 268.345 58.376C266.617 59.016 264.553 59.336 262.153 59.336ZM85.5433 118V84.4H99.3673C102.343 84.4 104.887 84.88 106.999 85.84C109.143 86.8 110.791 88.176 111.943 89.968C113.095 91.76 113.671 93.888 113.671 96.352C113.671 98.816 113.095 100.944 111.943 102.736C110.791 104.496 109.143 105.856 106.999 106.816C104.887 107.744 102.343 108.208 99.3673 108.208H88.9993L91.7833 105.376V118H85.5433ZM107.527 118L99.0313 105.808H105.703L114.247 118H107.527ZM91.7833 106.048L88.9993 103.072H99.0793C101.831 103.072 103.895 102.48 105.271 101.296C106.679 100.112 107.383 98.464 107.383 96.352C107.383 94.208 106.679 92.56 105.271 91.408C103.895 90.256 101.831 89.68 99.0793 89.68H88.9993L91.7833 86.608V106.048ZM132.125 118.336C129.277 118.336 126.781 117.776 124.637 116.656C122.525 115.504 120.877 113.936 119.693 111.952C118.541 109.968 117.965 107.712 117.965 105.184C117.965 102.624 118.525 100.368 119.645 98.416C120.797 96.432 122.365 94.88 124.349 93.76C126.365 92.64 128.653 92.08 131.213 92.08C133.709 92.08 135.933 92.624 137.885 93.712C139.837 94.8 141.373 96.336 142.493 98.32C143.613 100.304 144.173 102.64 144.173 105.328C144.173 105.584 144.157 105.872 144.125 106.192C144.125 106.512 144.109 106.816 144.077 107.104H122.717V103.12H140.909L138.557 104.368C138.589 102.896 138.285 101.6 137.645 100.48C137.005 99.36 136.125 98.48 135.005 97.84C133.917 97.2 132.653 96.88 131.213 96.88C129.741 96.88 128.445 97.2 127.325 97.84C126.237 98.48 125.373 99.376 124.733 100.528C124.125 101.648 123.821 102.976 123.821 104.512V105.472C123.821 107.008 124.173 108.368 124.877 109.552C125.581 110.736 126.573 111.648 127.853 112.288C129.133 112.928 130.605 113.248 132.269 113.248C133.709 113.248 135.005 113.024 136.157 112.576C137.309 112.128 138.333 111.424 139.229 110.464L142.445 114.16C141.293 115.504 139.837 116.544 138.077 117.28C136.349 117.984 134.365 118.336 132.125 118.336ZM161.696 118.336C159.008 118.336 156.608 117.776 154.496 116.656C152.416 115.504 150.784 113.936 149.6 111.952C148.416 109.968 147.824 107.712 147.824 105.184C147.824 102.624 148.416 100.368 149.6 98.416C150.784 96.432 152.416 94.88 154.496 93.76C156.608 92.64 159.008 92.08 161.696 92.08C164.192 92.08 166.384 92.592 168.272 93.616C170.192 94.608 171.648 96.08 172.64 98.032L168.032 100.72C167.264 99.504 166.32 98.608 165.2 98.032C164.112 97.456 162.928 97.168 161.648 97.168C160.176 97.168 158.848 97.488 157.664 98.128C156.48 98.768 155.552 99.696 154.88 100.912C154.208 102.096 153.872 103.52 153.872 105.184C153.872 106.848 154.208 108.288 154.88 109.504C155.552 110.688 156.48 111.6 157.664 112.24C158.848 112.88 160.176 113.2 161.648 113.2C162.928 113.2 164.112 112.912 165.2 112.336C166.32 111.76 167.264 110.864 168.032 109.648L172.64 112.336C171.648 114.256 170.192 115.744 168.272 116.8C166.384 117.824 164.192 118.336 161.696 118.336ZM177.592 118V92.368H183.592V118H177.592ZM180.616 88.144C179.496 88.144 178.568 87.792 177.832 87.088C177.128 86.384 176.776 85.536 176.776 84.544C176.776 83.52 177.128 82.672 177.832 82C178.568 81.296 179.496 80.944 180.616 80.944C181.736 80.944 182.648 81.28 183.352 81.952C184.088 82.592 184.456 83.408 184.456 84.4C184.456 85.456 184.104 86.352 183.4 87.088C182.696 87.792 181.768 88.144 180.616 88.144ZM205.675 118.336C203.595 118.336 201.691 117.856 199.963 116.896C198.267 115.936 196.907 114.496 195.883 112.576C194.891 110.624 194.395 108.16 194.395 105.184C194.395 102.176 194.875 99.712 195.835 97.792C196.827 95.872 198.171 94.448 199.867 93.52C201.563 92.56 203.499 92.08 205.675 92.08C208.203 92.08 210.427 92.624 212.347 93.712C214.299 94.8 215.835 96.32 216.955 98.272C218.107 100.224 218.683 102.528 218.683 105.184C218.683 107.84 218.107 110.16 216.955 112.144C215.835 114.096 214.299 115.616 212.347 116.704C210.427 117.792 208.203 118.336 205.675 118.336ZM191.467 127.312V92.368H197.179V98.416L196.987 105.232L197.467 112.048V127.312H191.467ZM205.003 113.2C206.443 113.2 207.723 112.88 208.843 112.24C209.995 111.6 210.907 110.672 211.579 109.456C212.251 108.24 212.587 106.816 212.587 105.184C212.587 103.52 212.251 102.096 211.579 100.912C210.907 99.696 209.995 98.768 208.843 98.128C207.723 97.488 206.443 97.168 205.003 97.168C203.563 97.168 202.267 97.488 201.115 98.128C199.963 98.768 199.051 99.696 198.379 100.912C197.707 102.096 197.371 103.52 197.371 105.184C197.371 106.816 197.707 108.24 198.379 109.456C199.051 110.672 199.963 111.6 201.115 112.24C202.267 112.88 203.563 113.2 205.003 113.2ZM236.422 118.336C233.574 118.336 231.078 117.776 228.934 116.656C226.822 115.504 225.174 113.936 223.99 111.952C222.838 109.968 222.262 107.712 222.262 105.184C222.262 102.624 222.822 100.368 223.942 98.416C225.094 96.432 226.662 94.88 228.646 93.76C230.662 92.64 232.95 92.08 235.51 92.08C238.006 92.08 240.23 92.624 242.182 93.712C244.134 94.8 245.67 96.336 246.79 98.32C247.91 100.304 248.47 102.64 248.47 105.328C248.47 105.584 248.454 105.872 248.422 106.192C248.422 106.512 248.406 106.816 248.374 107.104H227.014V103.12H245.206L242.854 104.368C242.886 102.896 242.582 101.6 241.942 100.48C241.302 99.36 240.422 98.48 239.302 97.84C238.214 97.2 236.95 96.88 235.51 96.88C234.038 96.88 232.742 97.2 231.622 97.84C230.534 98.48 229.67 99.376 229.03 100.528C228.422 101.648 228.118 102.976 228.118 104.512V105.472C228.118 107.008 228.47 108.368 229.174 109.552C229.878 110.736 230.87 111.648 232.15 112.288C233.43 112.928 234.902 113.248 236.566 113.248C238.006 113.248 239.302 113.024 240.454 112.576C241.606 112.128 242.63 111.424 243.526 110.464L246.742 114.16C245.59 115.504 244.134 116.544 242.374 117.28C240.646 117.984 238.662 118.336 236.422 118.336ZM262.153 118.336C260.009 118.336 257.945 118.064 255.961 117.52C254.009 116.944 252.457 116.256 251.305 115.456L253.609 110.896C254.761 111.632 256.137 112.24 257.737 112.72C259.337 113.2 260.937 113.44 262.537 113.44C264.425 113.44 265.785 113.184 266.617 112.672C267.481 112.16 267.913 111.472 267.913 110.608C267.913 109.904 267.625 109.376 267.049 109.024C266.473 108.64 265.721 108.352 264.793 108.16C263.865 107.968 262.825 107.792 261.673 107.632C260.553 107.472 259.417 107.264 258.265 107.008C257.145 106.72 256.121 106.32 255.193 105.808C254.265 105.264 253.513 104.544 252.937 103.648C252.361 102.752 252.073 101.568 252.073 100.096C252.073 98.464 252.537 97.056 253.465 95.872C254.393 94.656 255.689 93.728 257.353 93.088C259.049 92.416 261.049 92.08 263.353 92.08C265.081 92.08 266.825 92.272 268.585 92.656C270.345 93.04 271.801 93.584 272.953 94.288L270.649 98.848C269.433 98.112 268.201 97.616 266.953 97.36C265.737 97.072 264.521 96.928 263.305 96.928C261.481 96.928 260.121 97.2 259.225 97.744C258.361 98.288 257.929 98.976 257.929 99.808C257.929 100.576 258.217 101.152 258.793 101.536C259.369 101.92 260.121 102.224 261.049 102.448C261.977 102.672 263.001 102.864 264.121 103.024C265.273 103.152 266.409 103.36 267.529 103.648C268.649 103.936 269.673 104.336 270.601 104.848C271.561 105.328 272.329 106.016 272.905 106.912C273.481 107.808 273.769 108.976 273.769 110.416C273.769 112.016 273.289 113.408 272.329 114.592C271.401 115.776 270.073 116.704 268.345 117.376C266.617 118.016 264.553 118.336 262.153 118.336Z" fill="white"/>
</svg>
