<svg width="52" height="26" viewBox="0 0 52 26" fill="none" xmlns="http://www.w3.org/2000/svg">
<path d="M5.532 3.512C5.028 3.512 4.468 3.788 3.852 4.34C3.244 4.892 2.724 5.584 2.292 6.416C1.86 7.24 1.644 8.008 1.644 8.72C1.644 9.008 1.736 9.256 1.92 9.464C2.104 9.664 2.32 9.764 2.568 9.764C2.952 9.764 3.4 9.556 3.912 9.14C4.432 8.716 4.912 8.172 5.352 7.508C4.904 7.628 4.572 7.688 4.356 7.688C4.14 7.688 3.956 7.632 3.804 7.52C3.652 7.4 3.576 7.288 3.576 7.184C3.576 7.056 3.748 6.956 4.092 6.884C4.436 6.804 4.868 6.764 5.388 6.764C5.676 6.764 5.908 6.888 6.084 7.136C6.268 7.376 6.36 7.66 6.36 7.988C6.36 8.308 6.16 9.068 5.76 10.268C5.36 11.468 5.056 12.068 4.848 12.068C4.648 12.068 4.548 11.952 4.548 11.72C4.548 11.496 4.604 11.192 4.716 10.808C4.836 10.424 4.96 10.032 5.088 9.632C5.216 9.224 5.32 8.892 5.4 8.636C5.008 9.3 4.564 9.828 4.068 10.22C3.572 10.604 3.088 10.796 2.616 10.796C2.152 10.796 1.692 10.58 1.236 10.148C0.78 9.708 0.552 9.228 0.552 8.708C0.552 7.9 0.808 7 1.32 6.008C1.832 5.016 2.476 4.168 3.252 3.464C4.028 2.752 4.756 2.396 5.436 2.396C5.66 2.396 5.88 2.532 6.096 2.804C6.312 3.068 6.42 3.284 6.42 3.452C6.42 3.612 6.376 3.692 6.288 3.692C6.264 3.692 6.176 3.664 6.024 3.608C5.872 3.544 5.708 3.512 5.532 3.512ZM8.42794 6.332L8.39194 5.432C8.39194 5.056 8.47994 4.868 8.65594 4.868C8.80794 4.868 8.95194 4.968 9.08794 5.168C9.23194 5.36 9.30394 5.592 9.30394 5.864C9.30394 6.128 9.29594 6.328 9.27994 6.464C9.97594 5.408 10.6359 4.88 11.2599 4.88C11.6519 4.88 11.8479 4.976 11.8479 5.168C11.8479 5.264 11.8039 5.352 11.7159 5.432C11.6279 5.512 11.4879 5.604 11.2959 5.708C10.8719 5.892 10.5119 6.176 10.2159 6.56C9.92794 6.936 9.69194 7.364 9.50794 7.844C9.32394 8.324 9.17594 8.728 9.06394 9.056C8.95994 9.384 8.87994 9.64 8.82394 9.824C8.76794 10.008 8.70394 10.188 8.63194 10.364C8.50394 10.684 8.35594 10.844 8.18794 10.844C8.05194 10.844 7.93994 10.768 7.85194 10.616C7.77194 10.456 7.73194 10.304 7.73194 10.16C7.73194 10.008 7.79994 9.712 7.93594 9.272C8.26394 8.264 8.42794 7.284 8.42794 6.332ZM14.8726 4.868C15.2326 4.868 15.5646 5.052 15.8686 5.42C16.1726 5.78 16.3246 6.108 16.3246 6.404C16.3246 6.692 16.2246 6.988 16.0246 7.292C16.1206 7.412 16.1686 7.516 16.1686 7.604C16.1686 7.828 16.1166 8.212 16.0126 8.756C15.9166 9.3 15.8566 9.656 15.8326 9.824C15.8166 9.992 15.8006 10.128 15.7846 10.232C15.7686 10.328 15.7486 10.424 15.7246 10.52C15.6926 10.72 15.6206 10.82 15.5086 10.82C15.3646 10.82 15.2446 10.696 15.1486 10.448C15.0606 10.192 15.0086 9.864 14.9926 9.464C14.2806 10.368 13.6206 10.82 13.0126 10.82C12.6446 10.82 12.2806 10.664 11.9206 10.352C11.5686 10.032 11.3926 9.704 11.3926 9.368C11.3926 8.888 11.5686 8.296 11.9206 7.592C12.2726 6.88 12.7286 6.248 13.2886 5.696C13.8486 5.144 14.3766 4.868 14.8726 4.868ZM15.4246 6.98C15.4246 6.236 15.2766 5.864 14.9806 5.864C14.6686 5.864 14.3046 6.088 13.8886 6.536C13.4726 6.976 13.1206 7.476 12.8326 8.036C12.5446 8.596 12.4006 9.04 12.4006 9.368C12.4006 9.504 12.4566 9.616 12.5686 9.704C12.6806 9.784 12.8126 9.824 12.9646 9.824C13.3406 9.824 13.7646 9.572 14.2366 9.068C14.7086 8.556 15.0366 7.936 15.2206 7.208C15.2446 7.088 15.3126 7.016 15.4246 6.992V6.98ZM18.4816 8.732C19.2496 7.428 19.8736 6.46 20.3536 5.828C20.8416 5.188 21.2376 4.868 21.5416 4.868C21.8536 4.868 22.1456 5.032 22.4176 5.36C22.6976 5.688 22.8376 6.036 22.8376 6.404C22.8376 6.98 22.7056 7.684 22.4416 8.516C21.9616 10.052 21.5296 10.82 21.1456 10.82C20.9696 10.82 20.8816 10.7 20.8816 10.46C20.8816 10.292 20.9656 9.952 21.1336 9.44C21.3096 8.92 21.4696 8.412 21.6136 7.916C21.7656 7.412 21.8416 7.036 21.8416 6.788C21.8416 6.532 21.8016 6.344 21.7216 6.224C21.6496 6.104 21.5736 6.044 21.4936 6.044C21.4216 6.044 21.3456 6.068 21.2656 6.116C21.1856 6.164 21.0936 6.244 20.9896 6.356C20.8936 6.468 20.8016 6.58 20.7136 6.692C20.6256 6.796 20.5136 6.948 20.3776 7.148C20.2496 7.348 20.1416 7.52 20.0536 7.664C19.9656 7.8 19.8376 8 19.6696 8.264C19.5016 8.528 19.3736 8.728 19.2856 8.864C19.1976 9 19.0816 9.184 18.9376 9.416C18.7936 9.648 18.6776 9.828 18.5896 9.956C18.5096 10.084 18.4176 10.224 18.3136 10.376C18.1136 10.672 17.9536 10.82 17.8336 10.82C17.7216 10.82 17.5896 10.732 17.4376 10.556C17.2856 10.372 17.2096 10.212 17.2096 10.076C17.2096 10.036 17.2376 9.928 17.2936 9.752C17.4456 9.288 17.6136 8.716 17.7976 8.036C17.9816 7.348 18.0816 6.568 18.0976 5.696C18.1216 5.112 18.2056 4.82 18.3496 4.82C18.5256 4.82 18.7016 4.912 18.8776 5.096C19.0536 5.28 19.1416 5.484 19.1416 5.708C19.1416 5.924 19.0736 6.348 18.9376 6.98C18.8096 7.604 18.6576 8.188 18.4816 8.732ZM24.88 8.732C25.648 7.428 26.272 6.46 26.752 5.828C27.24 5.188 27.636 4.868 27.94 4.868C28.252 4.868 28.544 5.032 28.816 5.36C29.096 5.688 29.236 6.036 29.236 6.404C29.236 6.98 29.104 7.684 28.84 8.516C28.36 10.052 27.928 10.82 27.544 10.82C27.368 10.82 27.28 10.7 27.28 10.46C27.28 10.292 27.364 9.952 27.532 9.44C27.708 8.92 27.868 8.412 28.012 7.916C28.164 7.412 28.24 7.036 28.24 6.788C28.24 6.532 28.2 6.344 28.12 6.224C28.048 6.104 27.972 6.044 27.892 6.044C27.82 6.044 27.744 6.068 27.664 6.116C27.584 6.164 27.492 6.244 27.388 6.356C27.292 6.468 27.2 6.58 27.112 6.692C27.024 6.796 26.912 6.948 26.776 7.148C26.648 7.348 26.54 7.52 26.452 7.664C26.364 7.8 26.236 8 26.068 8.264C25.9 8.528 25.772 8.728 25.684 8.864C25.596 9 25.48 9.184 25.336 9.416C25.192 9.648 25.076 9.828 24.988 9.956C24.908 10.084 24.816 10.224 24.712 10.376C24.512 10.672 24.352 10.82 24.232 10.82C24.12 10.82 23.988 10.732 23.836 10.556C23.684 10.372 23.608 10.212 23.608 10.076C23.608 10.036 23.636 9.928 23.692 9.752C23.844 9.288 24.012 8.716 24.196 8.036C24.38 7.348 24.48 6.568 24.496 5.696C24.52 5.112 24.604 4.82 24.748 4.82C24.924 4.82 25.1 4.912 25.276 5.096C25.452 5.28 25.54 5.484 25.54 5.708C25.54 5.924 25.472 6.348 25.336 6.98C25.208 7.604 25.056 8.188 24.88 8.732ZM34.7945 4.868C34.9225 4.868 35.0585 4.964 35.2025 5.156C35.3545 5.34 35.4305 5.548 35.4305 5.78C35.4305 5.94 35.2665 6.484 34.9385 7.412C34.6105 8.34 34.3865 8.972 34.2665 9.308C34.1545 9.636 33.9985 10.076 33.7985 10.628C33.6065 11.172 33.4185 11.704 33.2345 12.224C32.8345 13.368 32.2345 13.94 31.4345 13.94C30.9785 13.94 30.5425 13.8 30.1265 13.52C29.7105 13.248 29.5025 12.964 29.5025 12.668C29.5025 12.556 29.5545 12.432 29.6585 12.296C29.7545 12.16 29.8385 12.092 29.9105 12.092C29.9825 12.092 30.0985 12.18 30.2585 12.356C30.7225 12.884 31.1185 13.148 31.4465 13.148C31.6945 13.148 31.9185 12.928 32.1185 12.488C32.3185 12.056 32.5065 11.564 32.6825 11.012C32.8665 10.468 32.9665 10.168 32.9825 10.112C33.0065 10.056 33.0305 9.984 33.0545 9.896C33.0865 9.808 33.1145 9.728 33.1385 9.656C32.5705 10.432 32.0105 10.82 31.4585 10.82C31.1225 10.82 30.8105 10.664 30.5225 10.352C30.2425 10.04 30.1025 9.672 30.1025 9.248C30.1025 8.824 30.2065 8.252 30.4145 7.532C30.6225 6.812 30.8665 6.188 31.1465 5.66C31.4265 5.132 31.6545 4.868 31.8305 4.868C31.9745 4.868 32.1065 4.936 32.2265 5.072C32.3545 5.2 32.4185 5.332 32.4185 5.468C32.4185 5.604 32.3145 5.888 32.1065 6.32C31.4585 7.648 31.1345 8.68 31.1345 9.416C31.1345 9.544 31.1745 9.652 31.2545 9.74C31.3345 9.82 31.4305 9.86 31.5425 9.86C31.8305 9.86 32.1745 9.604 32.5745 9.092C32.9745 8.58 33.3425 7.972 33.6785 7.268C33.9585 6.676 34.2505 5.92 34.5545 5C34.5865 4.912 34.6665 4.868 34.7945 4.868ZM42.2555 7.952C42.2555 8.424 42.0115 8.884 41.5235 9.332C41.0355 9.772 40.4035 10.128 39.6275 10.4C38.8515 10.664 38.0595 10.796 37.2515 10.796C36.7795 10.796 36.3555 10.664 35.9795 10.4C35.6115 10.136 35.4275 9.892 35.4275 9.668C35.4275 9.436 35.4955 9.32 35.6315 9.32C35.6635 9.32 35.8195 9.408 36.0995 9.584C36.3875 9.752 36.6875 9.84 36.9995 9.848C36.8875 9.792 36.7795 9.688 36.6755 9.536C36.5795 9.384 36.5315 9.24 36.5315 9.104C36.5315 8.968 36.6275 8.588 36.8195 7.964C37.4115 6.084 37.7155 4.64 37.7315 3.632H37.6355C37.4915 3.632 37.3435 3.544 37.1915 3.368C37.0395 3.184 36.9635 3.036 36.9635 2.924C36.9635 2.788 37.1315 2.672 37.4675 2.576C37.8115 2.472 38.2235 2.42 38.7035 2.42C39.8235 2.42 40.6875 2.572 41.2955 2.876C41.9035 3.18 42.2075 3.62 42.2075 4.196C42.2075 4.676 42.0035 5.112 41.5955 5.504C41.1955 5.896 40.6075 6.212 39.8315 6.452L39.9395 6.464C40.6115 6.504 41.1635 6.668 41.5955 6.956C42.0355 7.244 42.2555 7.576 42.2555 7.952ZM41.1275 4.256C41.1275 3.992 40.9915 3.788 40.7195 3.644C40.4555 3.492 40.1315 3.416 39.7475 3.416C39.3715 3.416 38.9115 3.464 38.3675 3.56C38.5915 3.8 38.7035 4.032 38.7035 4.256C38.7035 4.472 38.5635 5.132 38.2835 6.236C38.4755 6.116 38.7755 5.98 39.1835 5.828C39.5915 5.668 39.9115 5.528 40.1435 5.408C40.3835 5.288 40.5555 5.184 40.6595 5.096C40.7715 5 40.8755 4.876 40.9715 4.724C41.0755 4.572 41.1275 4.416 41.1275 4.256ZM41.2115 7.904C41.2115 7.664 40.9315 7.464 40.3715 7.304C39.8195 7.136 39.2675 7.052 38.7155 7.052C38.4995 7.052 38.3115 6.94 38.1515 6.716C37.6635 8.644 37.3435 9.688 37.1915 9.848C37.7595 9.832 38.3555 9.732 38.9795 9.548C39.6035 9.356 40.1315 9.108 40.5635 8.804C40.9955 8.5 41.2115 8.2 41.2115 7.904ZM45.7681 2.072C45.7681 2.576 45.5361 3.084 45.0721 3.596C44.6081 4.108 44.2281 4.364 43.9321 4.364C43.7161 4.364 43.6081 4.276 43.6081 4.1C43.6081 4.004 43.6961 3.868 43.8721 3.692C44.0561 3.516 44.2401 3.312 44.4241 3.08C44.6081 2.848 44.7001 2.632 44.7001 2.432C44.7001 2.232 44.6641 2.084 44.5921 1.988C44.5201 1.892 44.4441 1.824 44.3641 1.784C44.1321 1.688 44.0161 1.564 44.0161 1.412C44.0161 1.26 44.0761 1.132 44.1961 1.028C44.3241 0.916 44.4721 0.86 44.6401 0.86C44.9521 0.86 45.2161 0.972 45.4321 1.196C45.6561 1.412 45.7681 1.704 45.7681 2.072ZM50.2337 4.868C50.5057 4.868 50.7617 5.02 51.0017 5.324C51.2417 5.62 51.3617 5.88 51.3617 6.104C51.3617 6.24 51.2977 6.308 51.1697 6.308C51.0817 6.308 50.9457 6.24 50.7617 6.104C50.5777 5.96 50.3897 5.888 50.1977 5.888C50.0057 5.888 49.7017 6 49.2857 6.224C48.8777 6.448 48.6737 6.684 48.6737 6.932C48.6737 7.116 49.0417 7.432 49.7777 7.88C50.0577 8.056 50.3097 8.284 50.5337 8.564C50.7657 8.836 50.8817 9.132 50.8817 9.452C50.8817 9.764 50.6617 10.072 50.2217 10.376C49.7897 10.672 49.2817 10.82 48.6977 10.82C48.1217 10.82 47.6097 10.68 47.1617 10.4C46.7217 10.12 46.5017 9.856 46.5017 9.608C46.5017 9.504 46.5257 9.424 46.5737 9.368C46.6297 9.304 46.6977 9.272 46.7777 9.272C46.8577 9.272 46.9697 9.324 47.1137 9.428C47.5457 9.74 47.9937 9.896 48.4577 9.896C48.9297 9.896 49.2697 9.844 49.4777 9.74C49.6857 9.628 49.7897 9.484 49.7897 9.308C49.7897 9.124 49.6737 8.932 49.4417 8.732C49.2097 8.524 48.9537 8.34 48.6737 8.18C48.4017 8.02 48.1497 7.824 47.9177 7.592C47.6857 7.36 47.5697 7.124 47.5697 6.884C47.5697 6.46 47.9017 6.02 48.5657 5.564C49.2377 5.1 49.7937 4.868 50.2337 4.868ZM1.2 22.808C1.08 22.808 0.944 22.72 0.792 22.544C0.64 22.368 0.564 22.192 0.564 22.016C0.564 21.832 0.784 20.964 1.224 19.412C1.664 17.86 1.916 16.68 1.98 15.872C1.876 15.808 1.784 15.708 1.704 15.572C1.624 15.436 1.584 15.316 1.584 15.212C1.584 15.028 1.856 14.84 2.4 14.648C2.944 14.448 3.544 14.348 4.2 14.348C4.864 14.348 5.436 14.508 5.916 14.828C6.404 15.14 6.648 15.584 6.648 16.16C6.648 16.552 6.536 16.92 6.312 17.264C6.096 17.6 5.828 17.876 5.508 18.092C5.196 18.308 4.884 18.5 4.572 18.668C4.26 18.836 3.992 18.976 3.768 19.088C3.552 19.192 3.444 19.268 3.444 19.316C3.444 19.492 3.58 19.72 3.852 20C4.132 20.28 4.328 20.472 4.44 20.576C4.552 20.68 4.7 20.82 4.884 20.996C5.068 21.164 5.24 21.316 5.4 21.452C5.568 21.588 5.7 21.7 5.796 21.788C5.9 21.876 6.004 21.968 6.108 22.064C6.308 22.248 6.408 22.396 6.408 22.508C6.408 22.7 6.276 22.796 6.012 22.796C5.532 22.796 4.848 22.38 3.96 21.548C3.072 20.708 2.528 19.996 2.328 19.412C1.952 20.66 1.736 21.384 1.68 21.584C1.624 21.776 1.56 21.976 1.488 22.184C1.36 22.6 1.264 22.808 1.2 22.808ZM3.012 16.196C3.012 16.716 2.844 17.576 2.508 18.776C2.644 18.672 2.904 18.52 3.288 18.32C3.672 18.112 4.016 17.924 4.32 17.756C4.632 17.58 4.916 17.348 5.172 17.06C5.428 16.772 5.556 16.472 5.556 16.16C5.556 15.664 5.124 15.416 4.26 15.416C3.868 15.416 3.412 15.516 2.892 15.716C2.972 15.892 3.012 16.052 3.012 16.196ZM12.1678 18.86C12.1678 19.284 11.9358 19.632 11.4718 19.904C11.0158 20.168 10.4958 20.3 9.91181 20.3C9.33581 20.3 8.81181 20.236 8.33981 20.108C8.22781 20.46 8.17181 20.776 8.17181 21.056C8.17181 21.328 8.25581 21.54 8.42381 21.692C8.59981 21.844 8.88381 21.92 9.27581 21.92C9.67581 21.92 10.0838 21.852 10.4998 21.716C10.9238 21.572 11.1558 21.5 11.1958 21.5C11.4038 21.5 11.5078 21.58 11.5078 21.74C11.5078 21.956 11.2638 22.192 10.7758 22.448C10.2878 22.696 9.81181 22.82 9.34781 22.82C8.72381 22.82 8.21581 22.636 7.82381 22.268C7.43181 21.892 7.23581 21.42 7.23581 20.852C7.23581 20.284 7.38781 19.692 7.69181 19.076C7.99581 18.452 8.38781 17.928 8.86781 17.504C9.34781 17.08 9.82381 16.868 10.2958 16.868C10.7678 16.868 11.1958 17.092 11.5798 17.54C11.9718 17.988 12.1678 18.428 12.1678 18.86ZM10.3558 17.816C10.0598 17.816 9.75181 17.972 9.43181 18.284C9.11181 18.588 8.83981 18.968 8.61581 19.424C8.93581 19.496 9.29981 19.532 9.70781 19.532C10.1158 19.532 10.4718 19.468 10.7758 19.34C11.0798 19.204 11.2318 19.028 11.2318 18.812C11.2318 18.596 11.1318 18.376 10.9318 18.152C10.7398 17.928 10.5478 17.816 10.3558 17.816ZM14.7142 22.82C14.2502 22.82 13.8142 22.64 13.4062 22.28C12.9982 21.912 12.7942 21.48 12.7942 20.984C12.7942 20.48 12.9622 19.9 13.2982 19.244C13.6342 18.588 14.0662 18.028 14.5942 17.564C15.1302 17.1 15.6502 16.868 16.1542 16.868C16.4822 16.868 16.7702 17.016 17.0182 17.312C17.2662 17.608 17.3902 17.868 17.3902 18.092C17.3902 18.156 17.3702 18.212 17.3302 18.26C17.2902 18.3 17.2302 18.32 17.1502 18.32C17.0782 18.32 16.9462 18.248 16.7542 18.104C16.5622 17.96 16.3902 17.888 16.2382 17.888C15.8062 17.888 15.3022 18.268 14.7262 19.028C14.1502 19.788 13.8622 20.452 13.8622 21.02C13.8622 21.268 13.9382 21.464 14.0902 21.608C14.2502 21.752 14.5022 21.824 14.8462 21.824C15.1982 21.824 15.5182 21.784 15.8062 21.704C16.1022 21.616 16.3302 21.532 16.4902 21.452C16.6502 21.364 16.7742 21.32 16.8622 21.32C17.0142 21.32 17.0902 21.396 17.0902 21.548C17.0902 21.78 16.8102 22.052 16.2502 22.364C15.6982 22.668 15.1862 22.82 14.7142 22.82ZM19.6619 15.164C19.6619 15.004 19.7259 14.852 19.8539 14.708C19.9819 14.564 20.1099 14.492 20.2379 14.492C20.3739 14.492 20.5339 14.656 20.7179 14.984C20.9019 15.304 20.9939 15.572 20.9939 15.788C20.9939 15.868 20.9579 15.94 20.8859 16.004C20.8139 16.068 20.7379 16.1 20.6579 16.1C20.4659 16.1 20.2499 15.984 20.0099 15.752C19.7779 15.52 19.6619 15.324 19.6619 15.164ZM19.6019 16.868C19.7539 16.868 19.8979 16.96 20.0339 17.144C20.1699 17.328 20.2379 17.508 20.2379 17.684C20.2379 17.86 20.1219 18.388 19.8899 19.268C19.6579 20.14 19.3659 21.12 19.0139 22.208C18.8779 22.608 18.7059 22.808 18.4979 22.808C18.3859 22.808 18.2899 22.764 18.2099 22.676C18.1299 22.58 18.0899 22.476 18.0899 22.364C18.0899 22.244 18.1179 22.06 18.1739 21.812C18.2379 21.556 18.3259 21.22 18.4379 20.804C18.5579 20.38 18.6499 20.036 18.7139 19.772C18.7859 19.508 18.8579 19.212 18.9299 18.884C19.0019 18.548 19.0579 18.28 19.0979 18.08C19.1459 17.872 19.1979 17.664 19.2539 17.456C19.3659 17.064 19.4819 16.868 19.6019 16.868ZM24.9093 16.832C25.2533 16.832 25.5493 17.052 25.7973 17.492C26.0533 17.932 26.1813 18.388 26.1813 18.86C26.1813 19.324 26.0453 19.792 25.7733 20.264C25.5013 20.728 25.1653 21.144 24.7653 21.512C24.3653 21.88 23.9213 22.188 23.4333 22.436C22.9533 22.676 22.5093 22.796 22.1013 22.796C21.9413 22.796 21.7893 22.776 21.6453 22.736C21.6133 22.872 21.5573 23.116 21.4773 23.468C21.3973 23.82 21.3293 24.112 21.2733 24.344C21.2173 24.576 21.1533 24.824 21.0813 25.088C20.9373 25.632 20.8093 25.904 20.6973 25.904C20.5853 25.904 20.4693 25.816 20.3493 25.64C20.2213 25.472 20.1573 25.32 20.1573 25.184C20.1573 25.048 20.2853 24.464 20.5413 23.432C21.3093 20.32 21.6933 18.224 21.6933 17.144C21.6933 16.904 21.7813 16.784 21.9573 16.784C22.1013 16.784 22.2733 16.892 22.4733 17.108C22.6813 17.316 22.7853 17.548 22.7853 17.804C22.7853 17.932 22.7693 18.072 22.7373 18.224C23.4493 17.296 24.1733 16.832 24.9093 16.832ZM21.9813 21.86C22.4053 21.86 22.8613 21.716 23.3493 21.428C23.8453 21.14 24.2653 20.76 24.6093 20.288C24.9613 19.808 25.1373 19.332 25.1373 18.86C25.1373 18.196 24.9813 17.864 24.6693 17.864C24.3573 17.864 23.9333 18.132 23.3973 18.668C22.8693 19.204 22.4493 19.9 22.1373 20.756L21.8613 21.86H21.9813ZM31.5038 18.86C31.5038 19.284 31.2718 19.632 30.8078 19.904C30.3518 20.168 29.8318 20.3 29.2478 20.3C28.6718 20.3 28.1478 20.236 27.6758 20.108C27.5638 20.46 27.5078 20.776 27.5078 21.056C27.5078 21.328 27.5918 21.54 27.7598 21.692C27.9358 21.844 28.2198 21.92 28.6118 21.92C29.0118 21.92 29.4198 21.852 29.8358 21.716C30.2598 21.572 30.4918 21.5 30.5318 21.5C30.7398 21.5 30.8438 21.58 30.8438 21.74C30.8438 21.956 30.5998 22.192 30.1118 22.448C29.6238 22.696 29.1478 22.82 28.6838 22.82C28.0598 22.82 27.5518 22.636 27.1598 22.268C26.7678 21.892 26.5718 21.42 26.5718 20.852C26.5718 20.284 26.7238 19.692 27.0278 19.076C27.3318 18.452 27.7238 17.928 28.2038 17.504C28.6838 17.08 29.1598 16.868 29.6318 16.868C30.1038 16.868 30.5318 17.092 30.9158 17.54C31.3078 17.988 31.5038 18.428 31.5038 18.86ZM29.6918 17.816C29.3958 17.816 29.0878 17.972 28.7678 18.284C28.4478 18.588 28.1758 18.968 27.9518 19.424C28.2718 19.496 28.6358 19.532 29.0438 19.532C29.4518 19.532 29.8078 19.468 30.1118 19.34C30.4158 19.204 30.5678 19.028 30.5678 18.812C30.5678 18.596 30.4678 18.376 30.2678 18.152C30.0758 17.928 29.8838 17.816 29.6918 17.816ZM35.5501 16.868C35.8221 16.868 36.0781 17.02 36.3181 17.324C36.5581 17.62 36.6781 17.88 36.6781 18.104C36.6781 18.24 36.6141 18.308 36.4861 18.308C36.3981 18.308 36.2621 18.24 36.0781 18.104C35.8941 17.96 35.7061 17.888 35.5141 17.888C35.3221 17.888 35.0181 18 34.6021 18.224C34.1941 18.448 33.9901 18.684 33.9901 18.932C33.9901 19.116 34.3581 19.432 35.0941 19.88C35.3741 20.056 35.6261 20.284 35.8501 20.564C36.0821 20.836 36.1981 21.132 36.1981 21.452C36.1981 21.764 35.9781 22.072 35.5381 22.376C35.1061 22.672 34.5981 22.82 34.0141 22.82C33.4381 22.82 32.9261 22.68 32.4781 22.4C32.0381 22.12 31.8181 21.856 31.8181 21.608C31.8181 21.504 31.8421 21.424 31.8901 21.368C31.9461 21.304 32.0141 21.272 32.0941 21.272C32.1741 21.272 32.2861 21.324 32.4301 21.428C32.8621 21.74 33.3101 21.896 33.7741 21.896C34.2461 21.896 34.5861 21.844 34.7941 21.74C35.0021 21.628 35.1061 21.484 35.1061 21.308C35.1061 21.124 34.9901 20.932 34.7581 20.732C34.5261 20.524 34.2701 20.34 33.9901 20.18C33.7181 20.02 33.4661 19.824 33.2341 19.592C33.0021 19.36 32.8861 19.124 32.8861 18.884C32.8861 18.46 33.2181 18.02 33.8821 17.564C34.5541 17.1 35.1101 16.868 35.5501 16.868Z" fill="white"/>
</svg>
